<svg width="24" height="24" viewBox="0 0 24 24" fill="none" xmlns="http://www.w3.org/2000/svg">
    <path d="M5.51888 16.7692C5.56465 16.6008 5.4635 16.3665 5.36696 16.1977C5.3369 16.1473 5.30429 16.0986 5.26927 16.0515C4.44129 14.7959 3.99999 13.3248 4.00004 11.8208C3.98658 7.50346 7.56657 4 11.9935 4C15.8542 4 19.0769 6.67462 19.83 10.225C19.9428 10.7514 19.9998 11.2882 20 11.8265C20 16.15 16.5581 19.7085 12.1312 19.7085C11.4273 19.7085 10.4773 19.5315 9.95925 19.3865C9.44118 19.2415 8.92387 19.0492 8.79041 18.9977C8.65391 18.9452 8.50895 18.9182 8.36272 18.9181C8.20299 18.9175 8.04481 18.9493 7.89772 19.0115L5.28888 19.9531C5.23173 19.9777 5.17117 19.9935 5.10927 20C5.06042 19.9999 5.01209 19.99 4.96707 19.9711C4.92205 19.9521 4.88124 19.9244 4.84701 19.8895C4.81277 19.8547 4.78579 19.8134 4.76763 19.7681C4.74946 19.7227 4.74048 19.6742 4.74119 19.6254C4.7444 19.5825 4.75213 19.5401 4.76427 19.4988L5.51888 16.7692Z" fill="white" stroke="black" stroke-width="2" stroke-miterlimit="10" stroke-linecap="round"/>
</svg>
