<svg width="45" height="45" viewBox="0 0 45 45" fill="none" xmlns="http://www.w3.org/2000/svg">
<circle cx="22.5" cy="24" r="16" fill="#24A676"/>
<g clip-path="url(#clip0_3986_4238)">
    <path d="M15.3301 20.9297H17.1465L19.1094 25.7246H19.1875L21.1504 20.9297H22.9668V28H21.541V23.3711H21.4824L19.6367 27.9707H18.6602L16.8145 23.3516H16.7559V28H15.3301V20.9297ZM23.4785 20.9297H25.1289L26.7598 23.9766H26.8281L28.4492 20.9297H30.0996L27.5215 25.4805V28H26.0566V25.4805L23.4785 20.9297Z" fill="white"/>
</g>
<g filter="url(#filter0_d_3986_4238)">
    <circle cx="22.5" cy="24" r="16" fill="#24A676"/>
    <path d="M22.3397 22.8971C23.7977 22.8971 24.9797 21.7115 24.9797 20.2489C24.9797 18.7863 23.7977 17.6006 22.3397 17.6006C20.8817 17.6006 19.6997 18.7863 19.6997 20.2489C19.6997 21.7115 20.8817 22.8971 22.3397 22.8971Z" fill="#ffffff"/>
    <path d="M22.3401 24.2217C23.7404 24.2217 25.0834 24.71 26.0736 25.5791C27.0638 26.4482 27.6201 27.627 27.6201 28.8562V30.401H17.0601V28.8562C17.0601 27.627 17.6163 26.4482 18.6065 25.5791C19.5967 24.71 20.9397 24.2217 22.3401 24.2217V24.2217Z" fill="#ffffff"/>
</g>
<defs>
    <filter id="filter0_d_3986_4238" x="0.74" y="0.96" width="43.52" height="43.52" filterUnits="userSpaceOnUse" color-interpolation-filters="sRGB">
        <feFlood flood-opacity="0" result="BackgroundImageFix"/>
        <feColorMatrix in="SourceAlpha" type="matrix" values="0 0 0 0 0 0 0 0 0 0 0 0 0 0 0 0 0 0 127 0" result="hardAlpha"/>
        <feOffset dy="-1.28"/>
        <feGaussianBlur stdDeviation="2.88"/>
        <feComposite in2="hardAlpha" operator="out"/>
        <feColorMatrix type="matrix" values="0 0 0 0 0.172549 0 0 0 0 0.180392 0 0 0 0 0.203922 0 0 0 0.2 0"/>
        <feBlend mode="normal" in2="BackgroundImageFix" result="effect1_dropShadow_3986_4238"/>
        <feBlend mode="normal" in="SourceGraphic" in2="effect1_dropShadow_3986_4238" result="shape"/>
    </filter>
    <clipPath id="clip0_3986_4238">
        <rect width="18" height="18" fill="white" transform="translate(13.5 15)"/>
    </clipPath>
</defs>
</svg>






