<svg width="40" height="25" viewBox="0 0 363 32" fill="none" xmlns="http://www.w3.org/2000/svg">
    <rect x="0.5" y="0.5" width="362" height="31" rx="10.5" fill="white"/>
    <rect x="0.5" y="0.5" width="362" height="31" rx="10.5" stroke="#BDBDBD"/>
    <path d="M339.938 13.4688L345 18.5313L350.063 13.4688" stroke="#4F4F4F" stroke-width="1.5" stroke-linecap="round" stroke-linejoin="round"/>
    <path d="M24.488 13.256V12.232H22.36V8.136H21.144V16.808H22.36V13.256H24.488ZM17.576 9.48V8.44H13.544V9.48H17.576ZM19.56 11.464V10.456H11.544V11.464H19.56ZM18.712 14.44C18.712 13.016 17.352 12.12 15.528 12.12C13.688 12.12 12.344 13.016 12.344 14.44C12.344 15.848 13.704 16.76 15.528 16.76C17.352 16.76 18.712 15.832 18.712 14.44ZM17.496 14.44C17.496 15.272 16.6 15.784 15.528 15.784C14.488 15.784 13.544 15.272 13.544 14.44C13.544 13.608 14.472 13.096 15.528 13.096C16.6 13.096 17.496 13.608 17.496 14.44ZM13.304 17.576V18.584H21.144V22.12H22.36V17.576H13.304ZM37.5758 20.056V19.032H32.8718V14.2H31.6558V19.032H29.3358V14.2H28.1198V19.032H24.9518V20.056H37.5758ZM36.0238 9.688H26.2798V10.712H34.7598V11.976C34.7598 13.816 34.5838 15.928 34.2638 17.24L35.4798 17.432C35.8798 15.656 36.0078 13.48 36.0238 11.352V9.688Z" fill="black"/>
</svg>
